<?xml version="1.0" encoding="utf-8"?>
<!-- Generator: Adobe Illustrator 23.0.1, SVG Export Plug-In . SVG Version: 6.00 Build 0)  -->
<svg version="1.1" id="Layer_1" xmlns="http://www.w3.org/2000/svg" xmlns:xlink="http://www.w3.org/1999/xlink" x="0px" y="0px"
	 viewBox="0 0 300 300" style="enable-background:new 0 0 300 300;" xml:space="preserve">
<style type="text/css">
	.st0{fill:#B4CFE8;}
	.st1{clip-path:url(#SVGID_2_);}
	.st2{fill:#F29853;}
	.st3{fill:#F0F5FA;}
	.st4{fill:#E3EBF9;}
	.st5{fill:#FF6F38;}
	.st6{fill:#FFAD76;}
	.st7{fill:#FFFFFF;}
	.st8{fill:#4E3E3E;}
</style>
<title>health</title>
<g>
	<g>
		<g id="Layer_3">
			<circle class="st0" cx="150" cy="150" r="150"/>
			<g>
				<defs>
					<circle id="SVGID_1_" cx="150" cy="150" r="150"/>
				</defs>
				<clipPath id="SVGID_2_">
					<use xlink:href="#SVGID_1_"  style="overflow:visible;"/>
				</clipPath>
				<g class="st1">
					<rect x="99.1" y="218.3" class="st2" width="97.4" height="121.6"/>
					<path class="st3" d="M212.7,66.5H88.4L76.6-3.4c0-13.3,147.9-13.3,147.9,0L212.7,66.5z"/>
					<path class="st4" d="M173,39.9c-0.6,0.1-16.3,0.2-16.3,0.2c-7.4-0.2-13.3-6.4-13.1-13.8c0.2-7.1,5.9-12.9,13.1-13.1
						c0,0,16.1,0.1,16.9,0.2c7.3-1.1,12.4-7.9,11.4-15.2c-1-6.6-6.6-11.5-13.3-11.5h-26.2c-0.2,0-0.4,0-0.6,0
						c-35,0.3-68.3,3.6-68.3,10l11.9,69.9h82c7.4,0,13.4-6,13.5-13.4C183.9,46.6,179.3,41.1,173,39.9z"/>
					<path class="st5" d="M163.7,21.8H160c-1.3,0-2.3-1-2.3-2.3v-3.7c0-1.3-1-2.3-2.3-2.3l0,0h-9.6c-1.3,0-2.3,1-2.3,2.3v0v3.7
						c0,1.3-1,2.3-2.3,2.3l0,0h-3.7c-1.3,0-2.3,1-2.3,2.3v9.6c0,1.3,1,2.3,2.3,2.3l0,0h3.7c1.3,0,2.3,1,2.3,2.3c0,0,0,0,0,0V42
						c0,1.3,1,2.3,2.3,2.3l0,0h9.6c1.3,0,2.3-1,2.3-2.3c0,0,0,0,0,0v-3.7c0-1.3,1-2.3,2.3-2.3h3.7c1.3,0,2.3-1,2.3-2.3v-9.6
						C166,22.9,165,21.8,163.7,21.8C163.7,21.8,163.7,21.8,163.7,21.8z"/>
					<path class="st2" d="M69.6,151.9l3.2-0.4c4.4-0.5,8.4,2.6,8.9,7l5.1,42.2c0.5,4.4-2.6,8.4-7,8.9l-3.2,0.4
						c-4.4,0.5-8.4-2.6-8.9-7l-5.1-42.2C62.1,156.4,65.2,152.4,69.6,151.9z"/>
					<path class="st2" d="M223.4,210l-3.2-0.4c-4.4-0.5-7.5-4.5-7-8.9l5.1-42.2c0.5-4.4,4.5-7.5,8.9-7l3.2,0.4
						c4.4,0.5,7.5,4.5,7,8.9l-5.1,42.2C231.7,207.4,227.8,210.6,223.4,210z"/>
					<path class="st6" d="M156.2,78.3h-15c-15.6,0-30.6,6.2-41.6,17.3l-7.6,7.6c-12.8,12.8-19,30.7-16.8,48.7l8.7,72.2
						c0.4,3.6,2.1,6.9,4.6,9.4L124,269c3.6,3.6,8.5,5.6,13.6,5.6h22.2c5.1,0,10-2,13.6-5.6l35.6-35.5c2.5-2.5,4.2-5.9,4.6-9.4
						l8.7-72.2c2.2-18-4-35.9-16.8-48.7l-7.6-7.6C186.8,84.6,171.9,78.4,156.2,78.3z"/>
					<path class="st2" d="M187.1,128.6v0.1V128.6z"/>
					<polygon class="st2" points="200.9,112.1 200.9,112.1 200.9,112.1 					"/>
					<path class="st3" d="M150.2,285.3h-2.3c-37.7,0-68.3-30.6-68.3-68.3c0,0,0,0,0,0v-25.5c0-11.5,139-11.5,139,0V217
						C218.5,254.7,187.9,285.3,150.2,285.3C150.2,285.3,150.2,285.3,150.2,285.3z"/>
					<path class="st7" d="M196.5,209.3V185c-26-2.8-69-2.8-95,0v24.3c0,42,20.9,76,46.7,76h1.6C175.6,285.3,196.5,251.3,196.5,209.3
						z"/>
					<path class="st8" d="M72.8,151.5c0,0-28.8-99.9,29.4-89.8c45.6,7.9,69.6,4.8,104.8,1.3c46.1-4.6,16.1,88.9,16.1,88.9
						s-50.6-37-67-31.1S104.4,173.1,72.8,151.5z"/>
					<path class="st8" d="M137.2,146.3c-1.7-0.1-2.9-1.5-2.9-3.1c0-1,0.6-1.9,1.5-2.5c0.2-0.1,19.1-10.2,23.7-31.6
						c0.1-1.7,1.5-2.9,3.2-2.8c1.7,0.1,2.9,1.5,2.8,3.2c0,0.3-0.1,0.6-0.2,0.9c-5.1,24.2-25.9,35.2-26.7,35.6
						C138.2,146.2,137.7,146.3,137.2,146.3z"/>
					<path class="st8" d="M196.4,153.9c2.3,0,4.2-1.8,4.2-4.1c0-1.5-0.8-3-2.2-3.7c-7.5-4-15.8-6.2-24.3-6.4
						c-2.3-0.1-4.2,1.8-4.2,4.1c-0.1,2.3,1.8,4.2,4.1,4.2l0,0c7.2,0.2,14.2,2,20.6,5.4C195,153.8,195.7,153.9,196.4,153.9z"/>
					<circle class="st8" cx="179.3" cy="167.3" r="7.4"/>
					<circle class="st8" cx="118.2" cy="168" r="7.4"/>
					<path class="st7" d="M178.9,137.3c-14.6,0-26.6,11.7-26.9,26.3c-2.2-0.2-4.4-0.1-6.6,0.2c-0.2-14.8-12.5-26.7-27.3-26.4
						c-14.8,0.2-26.7,12.5-26.4,27.3c0.2,14.8,12.5,26.7,27.3,26.4c12.5-0.2,23.2-9,25.8-21.1c2.5-0.6,5.2-0.7,7.7-0.3
						c3,14.5,17.2,23.9,31.7,20.9c14.5-3,23.9-17.2,20.9-31.7C202.6,146.3,191.6,137.4,178.9,137.3L178.9,137.3z M118.6,185.1
						c-11.6,0-20.9-9.4-20.9-20.9c0-11.6,9.4-20.9,20.9-20.9s20.9,9.4,20.9,20.9C139.5,175.7,130.2,185.1,118.6,185.1z M178.9,185.1
						c-11.6,0-20.9-9.4-20.9-20.9c0-11.6,9.4-20.9,20.9-20.9c11.6,0,20.9,9.4,20.9,20.9c0,0,0,0,0,0
						C199.8,175.7,190.4,185.1,178.9,185.1z"/>
				</g>
			</g>
		</g>
	</g>
</g>
</svg>
