<?xml version="1.0" encoding="utf-8"?>
<!-- Generator: Adobe Illustrator 19.0.0, SVG Export Plug-In . SVG Version: 6.00 Build 0)  -->
<svg version="1.2" baseProfile="tiny" id="Layer_1" xmlns="http://www.w3.org/2000/svg" xmlns:xlink="http://www.w3.org/1999/xlink"
	 x="0px" y="0px" viewBox="-134 136.9 729.1 729.1" xml:space="preserve">
<g>
	<g>
		<g id="XMLID_6742_">
			<rect id="XMLID_4936_" x="3.9" y="242.7" fill="#4A77A7" width="465.1" height="421.6"/>
		</g>
		<g id="XMLID_6741_">
			<rect id="XMLID_4934_" x="35.2" y="271" fill="#29456E" width="402.6" height="364.9"/>
		</g>
		<g id="XMLID_6727_">
			<g id="XMLID_6735_">
				<path id="XMLID_4924_" fill="#41679E" d="M102.8,285.8c-8.2,1.5-9.5,2.7-11,11c-1.5-8.2-2.7-9.5-11-11c8.2-1.5,9.5-2.7,11-11
					C93.3,283,94.5,284.3,102.8,285.8z"/>
			</g>
			<g id="XMLID_6734_">
				<path id="XMLID_4922_" fill="#41679E" d="M405.5,426.7c-5.7,1.1-6.6,1.9-7.6,7.6c-1.1-5.7-1.9-6.6-7.6-7.6
					c5.7-1.1,6.6-1.9,7.6-7.6C399,424.8,399.8,425.7,405.5,426.7z"/>
			</g>
			<g id="XMLID_6733_">
				<path id="XMLID_4920_" fill="#41679E" d="M266.9,538.1c-5.7,1.1-6.6,1.9-7.6,7.6c-1.1-5.7-1.9-6.6-7.6-7.6
					c5.7-1.1,6.6-1.9,7.6-7.6C260.3,536.2,261.2,537.1,266.9,538.1z"/>
			</g>
			<g id="XMLID_6732_">
				<path id="XMLID_4918_" fill="#41679E" d="M223.9,386.3c-5.7,1.1-6.6,1.9-7.7,7.7c-1.1-5.7-1.9-6.6-7.7-7.7
					c5.7-1.1,6.6-1.9,7.7-7.7C217.3,384.4,218.1,385.2,223.9,386.3z"/>
			</g>
			<g id="XMLID_6731_">
				<circle id="XMLID_4916_" fill="#41679E" cx="401.4" cy="532.7" r="3.5"/>
			</g>
			<g id="XMLID_6730_">
				<circle id="XMLID_4896_" fill="#41679E" cx="88.4" cy="503.5" r="3.4"/>
			</g>
			<g id="XMLID_6729_">
				<circle id="XMLID_4894_" fill="#41679E" cx="91.6" cy="376.8" r="3.1"/>
			</g>
			<g id="XMLID_6728_">
				<circle id="XMLID_4892_" fill="#41679E" cx="280.8" cy="303.1" r="3.2"/>
			</g>
		</g>
		<g id="XMLID_6726_">
			<rect id="XMLID_4889_" x="151.9" y="271" fill="#4A77A7" width="13.4" height="364.9"/>
		</g>
		<g id="XMLID_6725_">
			<rect id="XMLID_4887_" x="308.3" y="270.7" fill="#4A77A7" width="13.4" height="365.2"/>
		</g>
		<g id="XMLID_6724_">
			<rect id="XMLID_4882_" x="35.2" y="378.1" fill="#4A77A7" width="402.6" height="13.4"/>
		</g>
		<g id="XMLID_6723_">
			<rect id="XMLID_4879_" x="35.2" y="510.9" fill="#4A77A7" width="402.6" height="13.4"/>
		</g>
	</g>
	<g id="XMLID_4847_">
		<g id="XMLID_6615_">
			<rect id="XMLID_4876_" x="-2.9" y="210.1" fill="#588AB7" width="188.1" height="489.9"/>
		</g>
		<g id="XMLID_6608_">
			<path id="XMLID_4874_" fill="#4A77A7" d="M25.6,700V224.2c0-2.6-2.1-4.7-4.7-4.7h-2.5c-2.6,0-4.7,2.1-4.7,4.7V700H25.6z"/>
		</g>
		<g id="XMLID_6607_">
			<path id="XMLID_4872_" fill="#4A77A7" d="M53.1,700V224.2c0-2.6-2.1-4.7-4.7-4.7h-2.5c-2.6,0-4.7,2.1-4.7,4.7V700H53.1z"/>
		</g>
		<g id="XMLID_6606_">
			<path id="XMLID_4870_" fill="#4A77A7" d="M80.5,700V224.2c0-2.6-2.1-4.7-4.7-4.7h-2.5c-2.6,0-4.7,2.1-4.7,4.7V700H80.5z"/>
		</g>
		<g id="XMLID_6605_">
			<path id="XMLID_4868_" fill="#4A77A7" d="M108,700V224.2c0-2.6-2.1-4.7-4.7-4.7h-2.5c-2.6,0-4.7,2.1-4.7,4.7V700H108z"/>
		</g>
		<g id="XMLID_6603_">
			<path id="XMLID_4865_" fill="#4A77A7" d="M135.4,700V224.2c0-2.6-2.1-4.7-4.7-4.7h-2.5c-2.6,0-4.7,2.1-4.7,4.7V700H135.4z"/>
		</g>
		<g id="XMLID_6602_">
			<path id="XMLID_4863_" fill="#4A77A7" d="M162.8,700V224.2c0-2.6-2.1-4.7-4.7-4.7h-2.5c-2.6,0-4.7,2.1-4.7,4.7V700H162.8z"/>
		</g>
		<g id="XMLID_4830_">
			<g id="XMLID_4837_">
				<g id="XMLID_4839_">
					<rect id="XMLID_4861_" x="-17.9" y="192.9" fill="#4A77A7" width="496.5" height="9.2"/>
				</g>
				<g id="XMLID_4838_">
					<rect id="XMLID_4859_" x="-17.9" y="192.9" fill="#588AB7" width="496.5" height="5.6"/>
				</g>
			</g>
			<g id="XMLID_4834_">
				<g id="XMLID_4836_">
					<circle id="XMLID_4856_" fill="#4A77A7" cx="-25.8" cy="197.5" r="12.6"/>
				</g>
				<g id="XMLID_4835_">
					<path id="XMLID_4854_" fill="#588AB7" d="M-30.4,197.5c0-5.6,3.6-10.3,8.6-12c-1.3-0.4-2.6-0.7-4-0.7c-7,0-12.6,5.7-12.6,12.6
						c0,7,5.7,12.6,12.6,12.6c1.4,0,2.8-0.2,4-0.7C-26.8,207.8-30.4,203-30.4,197.5z"/>
				</g>
			</g>
			<g id="XMLID_4831_">
				<g id="XMLID_4833_">
					<circle id="XMLID_4851_" fill="#4A77A7" cx="486.9" cy="197.5" r="12.6"/>
				</g>
				<g id="XMLID_4832_">
					<path id="XMLID_4849_" fill="#588AB7" d="M482.4,197.5c0-5.6,3.6-10.3,8.6-12c-1.3-0.4-2.6-0.7-4-0.7c-7,0-12.6,5.7-12.6,12.6
						c0,7,5.7,12.6,12.6,12.6c1.4,0,2.8-0.2,4-0.7C486,207.8,482.4,203,482.4,197.5z"/>
				</g>
			</g>
		</g>
	</g>
</g>
<g id="XMLID_6743_">
	<g id="XMLID_6744_">
		<path id="XMLID_4939_" fill="#4A77A7" d="M-76.4,745.9H48.8c10.3,0,18.8,8.5,18.8,18.8c0,10.3-8.5,18.8-18.8,18.8h-70.5
			c-9.7,0.7-17.4,8.9-17.4,18.7l0,0c0,10.3,8.5,18.8,18.8,18.8h503.8c10.3,0,18.8-8.5,18.8-18.8l0,0c0-9.9-7.7-18-17.4-18.7h-32.1
			c-0.5,0-0.9,0-1.4-0.1h-2.5c0.4,0,0.8-0.1,1.2-0.1c-9-1.3-16-9.2-16-18.6c0-9.4,7-17.3,16.1-18.6c-0.9-0.1-1.8-0.2-2.7-0.2h90.4
			c12.9,0,23.4-10.5,23.4-23.4l0,0c0-12.9-10.5-23.4-23.4-23.4H-76.4c-12.9,0-23.4,10.5-23.4,23.4l0,0
			C-99.8,735.3-89.3,745.9-76.4,745.9z"/>
	</g>
</g>
<g id="XMLID_6181_">
	<g id="XMLID_4310_">
		<path id="XMLID_6245_" fill="#B6C3EE" d="M379.2,386.8H32.4c-9.4,0-17,7.7-17,17v16.4v178.2v30.5c0,9.4,7.7,17,17,17h346.8
			c9.4,0,17-7.7,17-17v-30.5V420.1v-16.4C396.3,394.4,388.6,386.8,379.2,386.8z"/>
	</g>
	<g id="XMLID_5915_">
		<path id="XMLID_6244_" fill="#E2EAFB" d="M370,386.8H23.2c-9.4,0-17,7.7-17,17v16.4v178.2v30.5c0,9.4,7.7,17,17,17H370
			c9.4,0,17-7.7,17-17v-30.5V420.1v-16.4C387.1,394.4,379.4,386.8,370,386.8z"/>
	</g>
	<g id="XMLID_3998_">
		<path id="XMLID_6243_" fill="#3D5D84" d="M196.6,395.8c-3.8,0-7,3.1-7,7c0,3.9,3.1,7,7,7c3.8,0,7-3.1,7-7
			C203.6,399,200.5,395.8,196.6,395.8z"/>
	</g>
	<g id="XMLID_5977_">
		<rect id="XMLID_6242_" x="155.4" y="645.8" fill="#B6C3EE" width="82.5" height="34.3"/>
	</g>
	<g id="XMLID_4378_">
		<rect id="XMLID_6241_" x="237.9" y="645.8" fill="#839ACC" width="7.2" height="34.3"/>
	</g>
	<g id="XMLID_5976_">
		<rect id="XMLID_6240_" x="155.4" y="645.8" fill="#839ACC" width="82.5" height="13.8"/>
	</g>
	<g id="XMLID_5971_">
		<rect id="XMLID_6239_" x="124.6" y="680.1" fill="#E2EAFB" width="144" height="18.9"/>
	</g>
	<g id="XMLID_4338_">
		<rect id="XMLID_6238_" x="268.6" y="680.1" fill="#B6C3EE" width="9.1" height="18.9"/>
	</g>
	<g id="XMLID_6110_">
		<g id="XMLID_5995_">
			<rect id="XMLID_6237_" x="6.2" y="420.1" fill="#3D5D84" width="380.8" height="178.2"/>
		</g>
		<g id="XMLID_6109_">
			<g id="XMLID_1_">
				<g id="XMLID_5534_">
					<g id="XMLID_5113_">
						<path id="XMLID_6315_" fill="#E2EAFB" d="M84.9,556.9c-27.3,0-49.4-22.2-49.4-49.4c0-27.3,22.2-49.4,49.4-49.4
							c27.3,0,49.4,22.2,49.4,49.4C134.4,534.7,112.2,556.9,84.9,556.9z M84.9,462.4c-24.8,0-45.1,20.2-45.1,45.1
							c0,24.9,20.2,45.1,45.1,45.1c24.9,0,45.1-20.2,45.1-45.1C130,482.6,109.8,462.4,84.9,462.4z"/>
					</g>
				</g>
				<g id="XMLID_5059_">
					<g id="XMLID_5116_">
						<path id="XMLID_6236_" fill="#B1E092" d="M84.9,558.4c-2,0-3.6-1.6-3.6-3.6c0-2,1.6-3.6,3.6-3.6c24.1,0,43.6-19.6,43.6-43.6
							c0-24.1-19.6-43.6-43.6-43.6c-2,0-3.6-1.6-3.6-3.6c0-2,1.6-3.6,3.6-3.6c28.1,0,50.9,22.8,50.9,50.9
							C135.8,535.5,113,558.4,84.9,558.4z"/>
					</g>
				</g>
				<g id="XMLID_5195_">
					<path id="XMLID_6085_" fill="#B1E092" d="M79.4,510.5c0,3.3-2.7,6-6,6c-1.9,0-3.6-0.9-4.7-2.3c-0.6-0.8-0.5-1.9,0.3-2.6
						c0.8-0.6,1.9-0.5,2.5,0.3c1.3,1.7,4.2,0.9,4.2-1.4c0-1.3-1-2.4-2.4-2.4c-0.5,0-1,0.2-1.4,0.5c-0.8,0.6-1.9,0.5-2.5-0.3
						c-0.3-0.4-0.4-1-0.3-1.5l0.8-5.7c0.1-0.9,0.9-1.5,1.8-1.5h5c1,0,1.8,0.8,1.8,1.8c0,1-0.8,1.8-1.8,1.8h-3.5l-0.2,1.4h0.3
						C76.8,504.6,79.4,507.2,79.4,510.5z"/>
					<path id="XMLID_6087_" fill="#B1E092" d="M87.1,516.5c-3.1,0-5.6-2.5-5.6-5.6v-5.7c0-3.1,2.6-5.6,5.6-5.6
						c3.1,0,5.6,2.5,5.6,5.6v5.7C92.7,513.9,90.2,516.5,87.1,516.5z M85.1,505.1v5.7c0,1.1,0.9,2.1,2,2.1c1.1,0,2-1,2-2.1v-5.7
						c0-1.1-0.9-2.1-2-2.1C86,503,85.1,504,85.1,505.1z"/>
					<path id="XMLID_6090_" fill="#B1E092" d="M98.4,507.4c-2.2,0-3.9-1.7-3.9-4c0-2.1,1.7-4,3.9-4c2.1,0,4,1.8,4,4
						C102.3,505.7,100.5,507.4,98.4,507.4z M98.4,502.2c-0.7,0-1.2,0.6-1.2,1.2c0,0.7,0.6,1.3,1.2,1.3c0.7,0,1.3-0.5,1.3-1.3
						C99.6,502.8,99.1,502.2,98.4,502.2z M100.6,515.6c-0.4,0.7-1.2,0.9-1.8,0.6c-0.6-0.3-0.9-1.2-0.6-1.8l7.4-14.1
						c0.3-0.6,1.2-0.9,1.9-0.5c0.6,0.3,0.9,1.1,0.5,1.8L100.6,515.6z M107.9,516.3c-2.2,0-4-1.7-4-4c0-2.1,1.7-3.9,4-3.9
						c2.1,0,3.9,1.8,3.9,3.9C111.8,514.6,110,516.3,107.9,516.3z M107.9,511.1c-0.7,0-1.3,0.6-1.3,1.2c0,0.7,0.5,1.3,1.3,1.3
						c0.7,0,1.2-0.6,1.2-1.3C109.1,511.7,108.5,511.1,107.9,511.1z"/>
				</g>
			</g>
			<g id="XMLID_4040_">
				<g id="XMLID_5284_">
					<path id="XMLID_6235_" fill="#E2EAFB" d="M343.3,469.8H181.2c-1.1,0-2-0.9-2-2v-2c0-1.1,0.9-2,2-2h162.1c1.1,0,2,0.9,2,2v2
						C345.3,468.9,344.4,469.8,343.3,469.8z"/>
				</g>
				<g id="XMLID_5695_">
					<path id="XMLID_6234_" fill="#B1E092" d="M268.9,471.2h-86.8c-1.6,0-2.9-1.3-2.9-2.9v-2.9c0-1.6,1.3-2.9,2.9-2.9h86.8
						c1.6,0,2.9,1.3,2.9,2.9v2.9C271.8,469.9,270.5,471.2,268.9,471.2z"/>
				</g>
				<g id="XMLID_6024_">
					<path id="XMLID_6233_" fill="#E2EAFB" d="M343.3,499.5H181.2c-1.1,0-2-0.9-2-2v-2c0-1.1,0.9-2,2-2h162.1c1.1,0,2,0.9,2,2v2
						C345.3,498.6,344.4,499.5,343.3,499.5z"/>
				</g>
				<g id="XMLID_6023_">
					<path id="XMLID_6232_" fill="#B1E092" d="M236.7,500.9h-54.6c-1.6,0-2.9-1.3-2.9-2.9v-2.9c0-1.6,1.3-2.9,2.9-2.9h54.6
						c1.6,0,2.9,1.3,2.9,2.9v2.9C239.7,499.6,238.4,500.9,236.7,500.9z"/>
				</g>
				<g id="XMLID_3999_">
					<path id="XMLID_6231_" fill="#E2EAFB" d="M343.3,529.3H181.2c-1.1,0-2-0.9-2-2v-2c0-1.1,0.9-2,2-2h162.1c1.1,0,2,0.9,2,2v2
						C345.3,528.4,344.4,529.3,343.3,529.3z"/>
				</g>
				<g id="XMLID_3997_">
					<path id="XMLID_6230_" fill="#B1E092" d="M217.5,530.7h-35.4c-1.6,0-2.9-1.3-2.9-2.9v-2.9c0-1.6,1.3-2.9,2.9-2.9h35.4
						c1.6,0,2.9,1.3,2.9,2.9v2.9C220.4,529.4,219.1,530.7,217.5,530.7z"/>
				</g>
				<g id="XMLID_4001_">
					<path id="XMLID_6229_" fill="#E2EAFB" d="M343.3,559H181.2c-1.1,0-2-0.9-2-2v-2c0-1.1,0.9-2,2-2h162.1c1.1,0,2,0.9,2,2v2
						C345.3,558.1,344.4,559,343.3,559z"/>
				</g>
				<g id="XMLID_4000_">
					<path id="XMLID_6228_" fill="#B1E092" d="M200.3,560.5h-18.2c-1.6,0-2.9-1.3-2.9-2.9v-2.9c0-1.6,1.3-2.9,2.9-2.9h18.2
						c1.6,0,2.9,1.3,2.9,2.9v2.9C203.3,559.1,202,560.5,200.3,560.5z"/>
				</g>
			</g>
			<g id="XMLID_5835_">
				<path id="XMLID_6227_" fill="#FFFFFF" d="M126,563.3l-4.5,4.5c-1.2,1.2-3.2,1.2-4.4,0l-4.9-4.9c-0.4-0.4-0.9-0.6-1.4-0.6
					c-0.5,0-1,0.2-1.4,0.6l-0.8,0.8c-1.7,1.7-4.6,0.9-5.2-1.4l-4.9-18.1c-0.6-2.3,1.5-4.5,3.8-3.8l18.1,4.9c2.3,0.6,3.1,3.5,1.4,5.2
					l-0.8,0.8c-0.8,0.8-0.8,2,0,2.8l4.9,4.9C127.2,560.1,127.2,562.1,126,563.3z"/>
			</g>
		</g>
	</g>
</g>
<g id="XMLID_5742_">
	<g id="XMLID_6265_">
		<g id="XMLID_6279_">
			<path id="XMLID_6226_" fill="#B6C3EE" d="M478.6,639.8c4.3-4.3,5.6-10.4,3.2-16c-2.3-5.6-7.5-9.1-13.6-9.1H453v6.9h15.2
				c3.8,0,6.2,2.5,7.2,4.8c1,2.3,1,5.8-1.7,8.5l-22.6,22.4c-1.8,1.8-2.8,4.2-2.7,6.7c0,2.5,1.1,4.9,3,6.6c1.7,1.6,3.9,2.4,6.3,2.4
				s4.6-0.9,6.3-2.4c3.2-3,3.9-7.8,1.6-11.5c-1-1.6-3.1-2.2-4.7-1.2c-0.8,0.5-1.4,1.2-1.6,2.1c-0.2,0.9-0.1,1.8,0.4,2.6
				c0.6,0.9,0.4,2.2-0.4,2.9c-0.9,0.8-2.3,0.8-3.2,0c-0.5-0.4-0.7-1-0.7-1.7c0-0.6,0.2-1.2,0.7-1.7L478.6,639.8z"/>
		</g>
		<g id="XMLID_6270_">
			<g id="XMLID_6278_">
				<path id="XMLID_6225_" fill="#B6C3EE" d="M443.8,651.6h-32.3h-4.9h-32.3c0,0-0.3,23.5,14.1,32.4h18.2h4.9h18.2
					C444.1,675.1,443.8,651.6,443.8,651.6z"/>
			</g>
			<g id="XMLID_6277_">
				<path id="XMLID_6224_" fill="#839ACC" d="M443.8,651.6h-23.1c0,0,0.3,23.5-14.1,32.4h0.1h4.9h18.2
					C444.1,675.1,443.8,651.6,443.8,651.6z"/>
			</g>
			<g id="XMLID_6276_">
				<path id="XMLID_6223_" fill="#FFFFFF" d="M460.4,611.8h-47.8h-7.2h-47.8c0,0-0.5,43.5,20.9,59.9h26.9h7.2h26.9
					C460.9,655.3,460.4,611.8,460.4,611.8z"/>
			</g>
			<g id="XMLID_6275_">
				<path id="XMLID_6222_" fill="#E2EAFB" d="M460.4,611.8h-47.8h-7.2h-6.7c0,0,0.5,43-20.6,59.6c0.1,0.1,0.2,0.2,0.3,0.3h26.9h7.2
					h26.9C460.9,655.3,460.4,611.8,460.4,611.8z"/>
			</g>
			<g id="XMLID_6274_">
				<path id="XMLID_6221_" fill="#B6C3EE" d="M460.4,611.8h-23.1c0,0,0.5,43.5-20.9,59.9h23.1C460.9,655.3,460.4,611.8,460.4,611.8z
					"/>
			</g>
			<g id="XMLID_6273_">
				<path id="XMLID_6220_" fill="#FFFFFF" d="M461.2,611.8H356.9c-0.5,0-0.9-0.4-0.9-0.9V610c0-0.5,0.4-0.9,0.9-0.9h104.3
					c0.5,0,0.9,0.4,0.9,0.9v0.9C462.1,611.4,461.7,611.8,461.2,611.8z"/>
			</g>
			<g id="XMLID_6272_">
				<path id="XMLID_6219_" fill="#839ACC" d="M430.5,686.6h-43c-0.5,0-0.9-0.4-0.9-0.9v-0.9c0-0.5,0.4-0.9,0.9-0.9h43
					c0.5,0,0.9,0.4,0.9,0.9v0.9C431.5,686.1,431,686.6,430.5,686.6z"/>
			</g>
			<g id="XMLID_6271_">
				<path id="XMLID_6218_" fill="#E2EAFB" d="M460.7,609.1h-23.1c0.7,0,1.3,0.6,1.3,1.3c0,0.7-0.6,1.3-1.3,1.3h23.1
					c0.7,0,1.3-0.6,1.3-1.3C462.1,609.7,461.5,609.1,460.7,609.1z"/>
			</g>
		</g>
		<g id="XMLID_6266_">
			<g id="XMLID_6269_">
				<path id="XMLID_6217_" fill="#E2EAFB" d="M409.3,684.7h-0.4h-59.3c8.5,6.8,18.5,10.9,30.2,12.1h29.1h0.4h29.1
					c11.7-1.1,21.7-5.2,30.2-12.1H409.3z"/>
			</g>
			<g id="XMLID_6268_">
				<path id="XMLID_6216_" fill="#B6C3EE" d="M439,699.5h-59.9c-0.5,0-1-0.4-1-1v-1c0-0.5,0.4-1,1-1H439c0.5,0,1,0.4,1,1v1
					C440,699.1,439.5,699.5,439,699.5z"/>
			</g>
			<g id="XMLID_6267_">
				<path id="XMLID_6213_" fill="#B6C3EE" d="M471,684.7H347.1c-0.5,0-1-0.4-1-1v-1c0-0.5,0.4-1,1-1H471c0.5,0,1,0.4,1,1v1
					C472,684.2,471.5,684.7,471,684.7z"/>
			</g>
		</g>
	</g>
</g>
<g id="XMLID_6108_">
	<g id="XMLID_5783_">
		<g id="XMLID_6179_">
			<path id="XMLID_6212_" fill="#FFFFFF" d="M546.4,532.4H258.1c-2.8,0-5-2.2-5-5V340.1c0-2.8,2.2-5,5-5h288.3c2.8,0,5,2.2,5,5
				v187.3C551.4,530.1,549.2,532.4,546.4,532.4z"/>
		</g>
		<g id="XMLID_4099_">
			<path id="XMLID_6211_" fill="#B6C3EE" d="M551.4,368.8v-28.6c0-2.8-2.3-5.1-5.1-5.1H258.2c-2.8,0-5.1,2.3-5.1,5.1v28.6H551.4z"/>
		</g>
		<g id="XMLID_6329_">
			<circle id="XMLID_6210_" fill="#EF5350" cx="272.2" cy="352" r="6.1"/>
		</g>
		<g id="XMLID_6370_">
			<circle id="XMLID_6209_" fill="#F8F4B0" cx="293.2" cy="352" r="6.1"/>
		</g>
		<g id="XMLID_6371_">
			<circle id="XMLID_6208_" fill="#58A012" cx="314.2" cy="352" r="6.1"/>
		</g>
	</g>
	<g id="XMLID_4867_">
		<g id="XMLID_4325_">
			<g id="XMLID_5989_">
				<path id="XMLID_6156_" fill="#E2EAFB" d="M389.3,435h-112c-2.2,0-4-1.8-4-4v-23.7c0-2.2,1.8-4,4-4h112c2.2,0,4,1.8,4,4V431
					C393.3,433.2,391.5,435,389.3,435z"/>
			</g>
			<g id="XMLID_4298_">
				<path id="XMLID_6154_" fill="#E2EAFB" d="M525.6,435h-112c-2.2,0-4-1.8-4-4v-23.7c0-2.2,1.8-4,4-4h112c2.2,0,4,1.8,4,4V431
					C529.6,433.2,527.8,435,525.6,435z"/>
			</g>
		</g>
		<g id="XMLID_4366_">
			<g id="XMLID_5962_">
				<circle id="XMLID_6151_" fill="#FFFFFF" cx="522.5" cy="430.9" r="13.3"/>
			</g>
			<g id="XMLID_5960_">
				<g id="XMLID_5961_">
					<path id="XMLID_6149_" fill="#FFC257" d="M522.5,430.9L522.5,430.9L522.5,430.9l9.3,0c0-5.1-4.2-9.3-9.3-9.3s-9.3,4.2-9.3,9.3
						c0,5.1,4.2,9.3,9.3,9.3V430.9z"/>
				</g>
			</g>
			<g id="XMLID_4367_">
				<g id="XMLID_4368_">
					<path id="XMLID_6146_" fill="#E6EAED" d="M522.5,430.9L522.5,430.9L522.5,430.9l0-9.3c-5.1,0-9.3,4.2-9.3,9.3
						c0,5.1,4.2,9.3,9.3,9.3c5.1,0,9.3-4.2,9.3-9.3H522.5z"/>
				</g>
			</g>
		</g>
		<g id="XMLID_4779_">
			<g id="XMLID_4818_">
				<circle id="XMLID_6142_" fill="#FFFFFF" cx="387.8" cy="430.9" r="13.3"/>
			</g>
			<g id="XMLID_4780_">
				<g id="XMLID_4817_">
					<circle id="XMLID_6140_" fill="#B1E092" cx="387.8" cy="430.9" r="9.3"/>
				</g>
				<g id="XMLID_4781_">
					<g id="XMLID_4782_">
						<path id="XMLID_6138_" fill="#FFFFFF" d="M387.2,435.4c-0.3,0-0.5-0.1-0.7-0.3l-3.4-3.3c-0.4-0.4-0.4-1.1,0-1.5
							c0.4-0.4,1.1-0.4,1.5,0l2.6,2.5l4.2-5.8c0.3-0.5,1-0.6,1.5-0.2c0.5,0.3,0.6,1,0.2,1.5l-4.9,6.8
							C387.9,435.2,387.6,435.3,387.2,435.4C387.3,435.4,387.3,435.4,387.2,435.4z"/>
					</g>
				</g>
			</g>
		</g>
	</g>
	<g id="XMLID_4898_">
		<g id="XMLID_4913_">
			<g id="XMLID_4915_">
				<path id="XMLID_6132_" fill="#E2EAFB" d="M389.3,489.3h-112c-2.2,0-4-1.8-4-4v-23.7c0-2.2,1.8-4,4-4h112c2.2,0,4,1.8,4,4v23.7
					C393.3,487.5,391.5,489.3,389.3,489.3z"/>
			</g>
			<g id="XMLID_4914_">
				<path id="XMLID_6130_" fill="#E2EAFB" d="M525.6,489.3h-112c-2.2,0-4-1.8-4-4v-23.7c0-2.2,1.8-4,4-4h112c2.2,0,4,1.8,4,4v23.7
					C529.6,487.5,527.8,489.3,525.6,489.3z"/>
			</g>
		</g>
		<g id="XMLID_4905_">
			<g id="XMLID_4910_">
				<circle id="XMLID_6127_" fill="#FFFFFF" cx="522.5" cy="485.2" r="13.3"/>
			</g>
			<g id="XMLID_4908_">
				<g id="XMLID_4909_">
					<path id="XMLID_6125_" fill="#FFC257" d="M522.5,485.2L522.5,485.2L522.5,485.2l9.3,0c0-5.1-4.2-9.3-9.3-9.3s-9.3,4.2-9.3,9.3
						c0,5.1,4.2,9.3,9.3,9.3V485.2z"/>
				</g>
			</g>
			<g id="XMLID_4906_">
				<g id="XMLID_4907_">
					<path id="XMLID_6122_" fill="#E6EAED" d="M522.5,485.2L522.5,485.2L522.5,485.2l0-9.3c-5.1,0-9.3,4.2-9.3,9.3s4.2,9.3,9.3,9.3
						c5.1,0,9.3-4.2,9.3-9.3H522.5z"/>
				</g>
			</g>
		</g>
		<g id="XMLID_4899_">
			<g id="XMLID_4904_">
				<circle id="XMLID_6118_" fill="#FFFFFF" cx="387.8" cy="485.2" r="13.3"/>
			</g>
			<g id="XMLID_4900_">
				<g id="XMLID_4903_">
					<circle id="XMLID_6116_" fill="#B1E092" cx="387.8" cy="485.2" r="9.3"/>
				</g>
				<g id="XMLID_4901_">
					<g id="XMLID_4902_">
						<path id="XMLID_6114_" fill="#FFFFFF" d="M387.2,489.6c-0.3,0-0.5-0.1-0.7-0.3l-3.4-3.3c-0.4-0.4-0.4-1.1,0-1.5
							c0.4-0.4,1.1-0.4,1.5,0l2.6,2.5l4.2-5.8c0.3-0.5,1-0.6,1.5-0.2c0.5,0.3,0.6,1,0.2,1.5l-4.9,6.8
							C387.9,489.4,387.6,489.6,387.2,489.6C387.3,489.6,387.3,489.6,387.2,489.6z"/>
					</g>
				</g>
			</g>
		</g>
	</g>
</g>
</svg>
